HIERARCHY
ROOT root
{
	OFFSET	0	13.1	24.9
	CHANNELS 6  Xposition Yposition Zposition Xrotation Yrotation Zrotation
	JOINT spine_1
	{
		OFFSET	0	9.99999	0
		CHANNELS 3  Xrotation Yrotation Zrotation
		JOINT spine_2
		{
			OFFSET	0	112	-10
			CHANNELS 3  Xrotation Yrotation Zrotation
			JOINT spine_3
			{
				OFFSET	0	206.5	19.3
				CHANNELS 3  Xrotation Yrotation Zrotation
				JOINT spine_4
				{
					OFFSET	0	110.4	14.6
					CHANNELS 3  Xrotation Yrotation Zrotation
					JOINT neck_1
					{
						OFFSET	0	71.8	-50.3
						CHANNELS 3  Xrotation Yrotation Zrotation
						JOINT neck_2
						{
							OFFSET	0	86.2	-25.8
							CHANNELS 3  Xrotation Yrotation Zrotation
							JOINT head_ee
							{
								OFFSET	0	179.8	-8.7
								CHANNELS 3  Xrotation Yrotation Zrotation
								End Site
								{
									OFFSET	1	0	0
								}
							}
						}
					}
					JOINT left_clavicle
					{
						OFFSET	-43.2	22.4	-70.8
						CHANNELS 3  Xrotation Yrotation Zrotation
						JOINT left_shoulder
						{
							OFFSET	-93.9	-5.79999	48.7
							CHANNELS 3  Xrotation Yrotation Zrotation
							JOINT left_elbow
							{
								OFFSET	-291.4	-30.8	15.2
								CHANNELS 3  Xrotation Yrotation Zrotation
								JOINT left_lowarm_twist
								{
									OFFSET	-110.7	-3.89999	13.6
									CHANNELS 3  Xrotation Yrotation Zrotation
									JOINT left_hand
									{
										OFFSET	-110.7	-3.89999	13.6
										CHANNELS 3  Xrotation Yrotation Zrotation
										JOINT left_ee
										{
											OFFSET	-80.8	-5.10001	12.1
											CHANNELS 3  Xrotation Yrotation Zrotation
											End Site
											{
												OFFSET	1	0	0
											}
										}
									}
								}
							}
						}
					}
					JOINT right_clavicle
					{
						OFFSET	43.2	22.4	-70.8
						CHANNELS 3  Xrotation Yrotation Zrotation
						JOINT right_shoulder
						{
							OFFSET	93.9	-5.79999	48.7
							CHANNELS 3  Xrotation Yrotation Zrotation
							JOINT right_elbow
							{
								OFFSET	291.4	-30.8	15.2
								CHANNELS 3  Xrotation Yrotation Zrotation
								JOINT right_lowarm_twist
								{
									OFFSET	110.7	-3.89999	13.6
									CHANNELS 3  Xrotation Yrotation Zrotation
									JOINT right_hand
									{
										OFFSET	110.7	-3.89999	13.6
										CHANNELS 3  Xrotation Yrotation Zrotation
										JOINT right_ee
										{
											OFFSET	80.8	-5.10001	12.1
											CHANNELS 3  Xrotation Yrotation Zrotation
											End Site
											{
												OFFSET	1	0	0
											}
										}
									}
								}
							}
						}
					}
				}
			}
		}
	}
	JOINT left_hip
	{
		OFFSET	-82.8	-127.5	0.300001
		CHANNELS 3  Xrotation Yrotation Zrotation
		JOINT left_knee
		{
			OFFSET	-28.2	-396.7	2.2
			CHANNELS 3  Xrotation Yrotation Zrotation
			JOINT left_ankle
			{
				OFFSET	-11.7	-411.3	35.4
				CHANNELS 3  Xrotation Yrotation Zrotation
				JOINT left_toes
				{
					OFFSET	0	-60	-88.6
					CHANNELS 3  Xrotation Yrotation Zrotation
					JOINT left_foot_ee
					{
						OFFSET	-22.5	-16.5	-42.2
						CHANNELS 3  Xrotation Yrotation Zrotation
						End Site
						{
							OFFSET	1	0	0
						}
					}
				}
			}
		}
	}
	JOINT right_hip
	{
		OFFSET	82.8	-127.5	0.300001
		CHANNELS 3  Xrotation Yrotation Zrotation
		JOINT right_knee
		{
			OFFSET	28.2	-396.7	2.2
			CHANNELS 3  Xrotation Yrotation Zrotation
			JOINT right_ankle
			{
				OFFSET	11.7	-411.3	35.4
				CHANNELS 3  Xrotation Yrotation Zrotation
				JOINT right_toes
				{
					OFFSET	0	-60	-88.6
					CHANNELS 3  Xrotation Yrotation Zrotation
					JOINT right_foot_ee
					{
						OFFSET	22.5	-16.5	-42.2
						CHANNELS 3  Xrotation Yrotation Zrotation
						End Site
						{
							OFFSET	1	0	0
						}
					}
				}
			}
		}
	}
}
MOTION
Frames: 15
Frame Time: 0.02
2724.42 689.943 -539.434 -169.681 -57.5481 -167.399 3.50254 0.0303544 -0.346971 3.50261 0.0523714 -0.344336 3.50226 0.103451 -0.332578 3.50211 0.0496286 -0.344742 -10.752 10.8384 -1.55057 -10.9349 21.4916 1.38777 -0.0 0.0 -0.0 4.71311 21.9229 9.25218 -36.0167 -37.5084 64.3773 0.281276 -7.93246 0.0195022 -45.9899 -3.60952 4.45691 2.05809 3.27352 15.1686 -0.0 0.0 -0.0 10.6851 7.54076 -21.3371 9.38358 20.8052 -65.8327 0.720996 19.6547 -0.124894 38.3051 0.264052 4.79616 -0.419518 -2.86563 1.57435 0.0 0.0 0.0 27.6106 -4.3127 -10.3588 4.34824 -0.203326 -0.636005 -15.3724 29.2717 2.46157 -14.0598 0.0 0.0 -0.0 0.0 -0.0 11.0696 3.61056 -2.26504 -32.3524 0.0532031 -4.89931 26.0511 11.2338 3.62387 3.18477 -0.0 -0.0 0.0 0.0 0.0 
2746.85 694.329 -542.162 -168.655 -56.2713 -166.232 3.27299 -0.0217578 -0.334196 3.27305 -0.000448054 -0.334903 3.27303 0.0511379 -0.330976 3.27287 -0.00177514 -0.334899 -11.4235 10.8727 -1.41691 -11.6444 21.5021 1.65937 -0.0 0.0 -0.0 5.78972 22.1243 10.8018 -36.4741 -37.4331 61.3725 0.395545 -11.0864 0.0383877 -45.665 -3.57277 4.4372 1.95939 3.67747 14.6468 -0.0 0.0 -0.0 10.5526 5.6038 -21.0202 8.2676 20.9607 -66.1911 0.747739 20.325 -0.134036 39.1278 0.304674 4.89321 -0.271099 -2.23617 0.858898 0.0 0.0 0.0 28.2833 -4.38977 -10.3244 1.70257 -0.0738458 -0.250813 -15.4473 28.7657 2.46563 -13.2199 0.0 0.0 -0.0 0.0 -0.0 10.7451 5.28979 -1.8939 -31.7323 0.0261746 -4.80799 23.466 10.8479 3.30591 2.25238 -0.0 -0.0 0.0 0.0 0.0 
2768.21 696.307 -540.999 -168.573 -54.9211 -166.348 3.48741 -0.00950319 -0.417829 3.48751 0.0171034 -0.417587 3.48734 0.0796814 -0.410272 3.48711 0.0138872 -0.417707 -10.7755 10.8488 -2.15417 -10.96 21.9097 0.811787 -0.0 0.0 -0.0 5.93545 20.8291 11.0886 -35.6115 -37.4279 61.7574 0.341782 -9.60976 0.0287297 -44.5986 -3.45296 4.37103 2.30503 -0.90639 15.2318 -0.0 0.0 -0.0 9.95836 5.74256 -19.7437 6.40108 23.2127 -67.2598 0.692222 18.9272 -0.115388 39.0394 0.300245 4.88282 0.0608189 -3.44018 -1.84466 0.0 0.0 0.0 28.2529 -4.77811 -10.0254 -0.531335 0.0215137 0.0787009 -14.7792 29.2906 2.36573 -11.9365 0.0 0.0 -0.0 0.0 -0.0 9.69214 5.76293 -0.973919 -31.0031 -0.00433824 -4.70026 24.0161 13.6873 3.43086 2.2079 -0.0 -0.0 0.0 0.0 0.0 
2787.31 698.12 -547.951 -170.909 -54.2293 -169.3 3.13938 -0.0344114 -0.330199 3.13944 -0.0133303 -0.33172 3.1395 0.0386873 -0.329726 3.13935 -0.0138719 -0.331697 -10.0971 11.1987 -1.08547 -10.2549 21.826 1.80681 -0.0 0.0 -0.0 6.21181 21.4247 11.4628 -35.134 -37.7294 61.5712 0.38777 -10.8737 0.0369068 -46.0661 -3.61815 4.46151 1.10094 2.80124 8.49921 -0.0 0.0 -0.0 9.69782 6.11868 -19.1897 3.33182 20.4627 -65.6167 0.88198 23.6006 -0.184263 38.5152 0.274293 4.821 0.242948 -3.13355 -2.92271 0.0 0.0 0.0 27.8216 -6.19722 -9.10933 -4.72153 0.165401 0.705533 -12.4978 28.3406 1.98418 -12.0546 0.0 0.0 -0.0 0.0 -0.0 8.45074 7.85076 0.84987 -31.6926 0.024478 -4.80214 23.3034 12.769 3.32315 1.7161 -0.0 -0.0 0.0 0.0 0.0 
2809.48 700.914 -546.467 -170.844 -53.3567 -169.816 3.47264 0.0263179 -0.231441 3.47267 0.0409918 -0.229297 3.47249 0.0750511 -0.220511 3.47243 0.0392837 -0.229596 -12.0011 11.3339 -0.571967 -12.2686 21.8644 2.72206 -0.0 0.0 -0.0 8.0412 21.522 14.187 -41.1412 -35.1526 55.6557 0.511582 -14.2209 0.0638159 -44.2287 -3.4117 4.34756 2.46018 -1.9301 15.8973 -0.0 0.0 -0.0 9.02661 2.46558 -17.7256 -4.94978 24.1856 -64.1618 0.970916 25.6854 -0.221353 37.8895 0.244065 4.74692 0.857845 -1.73934 -6.44597 0.0 0.0 0.0 30.9048 -4.33473 -8.36357 -12.2922 0.307843 1.85769 -11.9903 29.0172 1.91078 -8.97292 0.0 0.0 -0.0 0.0 -0.0 8.44494 11.4036 1.11552 -32.3376 0.0525476 -4.89714 22.8323 11.2273 3.23479 2.52877 -0.0 -0.0 0.0 0.0 0.0 
2828.2 705.666 -541.009 -171.955 -53.0518 -170.699 3.46286 0.0970571 -0.36212 3.46292 0.119903 -0.35521 3.46215 0.172084 -0.333074 3.46201 0.117322 -0.356071 -12.9549 12.1204 1.58194 -13.2764 22.0756 5.20681 -0.0 0.0 -0.0 9.64426 21.5426 16.6373 -44.2822 -32.4334 51.0776 0.588484 -16.2525 0.0840292 -44.3634 -3.42671 4.35614 2.06465 0.144121 13.9896 -0.0 0.0 -0.0 8.63251 -1.54949 -16.813 -9.80431 25.6095 -64.8432 0.667798 18.3047 -0.107591 35.7368 0.146286 4.48965 0.812682 -1.34384 -5.98355 0.0 0.0 0.0 32.581 -4.72003 -7.76936 -18.9472 0.306681 2.8782 -14.163 29.0911 2.26294 -8.0936 0.0 0.0 -0.0 0.0 -0.0 10.7672 13.294 -0.563741 -35.4023 0.200463 -5.34399 22.4019 7.45185 3.12102 1.9557 -0.0 -0.0 0.0 0.0 0.0 
2842.83 712.504 -540.977 -171.111 -53.3181 -170.089 3.44495 0.0710074 -0.452744 3.44505 0.0996725 -0.447308 3.44422 0.166104 -0.427117 3.44398 0.0965648 -0.447989 -13.7496 12.4352 2.23682 -14.118 22.3498 6.09219 -0.0 0.0 -0.0 10.2565 18.5356 18.1237 -44.2099 -31.6755 49.6357 0.701793 -19.1699 0.118511 -44.1833 -3.40664 4.34466 2.09255 0.926802 14.4923 -0.0 0.0 -0.0 8.50965 0.148743 -16.6163 -16.985 26.5898 -64.9444 0.445152 12.4358 -0.0484998 34.1333 0.0797842 4.29577 1.27509 -0.413397 -8.71545 0.0 0.0 0.0 33.5076 -7.72263 -6.90827 -22.5129 0.257333 3.42301 -8.41832 27.5747 1.32371 -5.48672 0.0 0.0 -0.0 0.0 -0.0 12.5097 15.3228 -1.3773 -36.1085 0.237931 -5.44582 18.971 5.93007 2.67208 1.17158 -0.0 -0.0 0.0 0.0 0.0 
2858.16 714.601 -539.989 -170.854 -51.7875 -170.161 3.72209 0.00553231 -0.46703 3.72221 0.0352391 -0.465732 3.72186 0.102985 -0.455568 3.72158 0.0297451 -0.466115 -14.6622 12.7984 3.87248 -15.0438 22.1623 7.93526 -0.0 0.0 -0.0 10.9459 18.5858 19.2651 -45.0938 -30.0777 45.9222 0.816231 -22.0152 0.158774 -43.1953 -3.29721 4.28059 2.15191 -0.201135 14.4539 -0.0 0.0 -0.0 8.45968 -5.92449 -16.2792 -21.0517 26.7078 -62.6213 0.513246 14.2652 -0.0642253 32.7888 0.0282276 4.13183 1.596 1.23887 -10.2236 0.0 0.0 0.0 34.3682 -6.74096 -7.2294 -26.0428 0.175183 3.9584 -12.8121 28.7778 2.04036 -5.15753 0.0 0.0 -0.0 0.0 -0.0 13.3667 17.8296 -1.6394 -37.4691 0.313657 -5.6407 19.0809 5.76547 2.68434 1.13948 -0.0 -0.0 0.0 0.0 0.0 
2870.51 716.04 -544.42 -169.943 -50.6863 -169.669 3.82255 -0.157721 -0.446019 3.82265 -0.129021 -0.455151 3.82362 -0.061894 -0.469018 3.82334 -0.135189 -0.453357 -15.3009 12.9656 4.21285 -15.7188 22.3617 8.44833 -0.0 0.0 -0.0 10.2523 15.3907 18.6155 -42.4875 -31.4705 46.4894 0.931183 -24.7626 0.20442 -43.2301 -3.30105 4.28288 2.07756 -0.0189043 14.0135 -0.0 0.0 -0.0 9.36097 -2.61881 -18.2214 -20.8371 24.7152 -61.6984 0.344794 9.69284 -0.0292346 32.5448 0.0192839 4.10195 1.647 -0.496746 -11.2702 0.0 0.0 0.0 34.4987 -8.99233 -6.49952 -26.8153 0.152814 4.07484 -10.8117 26.4567 1.69431 -4.69657 0.0 0.0 -0.0 0.0 -0.0 15.7544 22.3351 -2.66497 -37.9854 0.343602 -5.71418 16.6229 2.00658 2.33496 0.269423 -0.0 -0.0 0.0 0.0 0.0 
2881.22 718.965 -550.646 -169.816 -48.9037 -169.51 3.84018 -0.160615 -0.476081 3.8403 -0.129995 -0.485336 3.84134 -0.0586509 -0.499009 3.84102 -0.136723 -0.483484 -15.4004 13.3753 4.43156 -15.8492 23.0333 8.82522 -0.0 0.0 -0.0 10.6279 14.2913 19.4443 -42.5675 -30.699 43.3729 1.04812 -27.438 0.255879 -42.9305 -3.26807 4.26309 1.85268 -0.0509526 12.4556 -0.0 0.0 -0.0 10.0827 -0.221047 -19.8147 -20.2541 23.5682 -60.7283 0.265272 7.48641 -0.0173553 33.1435 0.0414537 4.17519 1.63697 -1.70569 -11.682 0.0 0.0 0.0 34.4536 -10.3332 -5.85787 -27.5499 0.130085 4.18529 -11.9452 26.6384 1.87628 -4.13858 0.0 0.0 -0.0 0.0 -0.0 17.2558 26.9376 -3.7534 -38.3485 0.365055 -5.76569 14.7964 0.769953 2.08783 -0.381255 0.0 0.0 0.0 0.0 0.0 
2896.3 719.716 -552.316 -168.631 -47.9731 -168.883 3.95458 -0.0389118 -0.447569 3.95469 -0.0103532 -0.449138 3.9547 0.0536422 -0.446043 3.95443 -0.0174745 -0.448918 -15.855 13.4422 3.84246 -16.3743 23.5575 8.41369 -0.0 0.0 -0.0 10.2728 13.6033 18.9091 -41.6029 -31.8925 44.1328 1.18367 -30.3842 0.321431 -43.8869 -3.37369 4.32563 1.50261 0.0769392 10.1204 -0.0 0.0 -0.0 10.8724 1.31343 -21.5462 -18.849 22.8339 -61.541 0.217132 6.13932 -0.0116442 33.685 0.0621664 4.24124 1.39374 -3.47599 -10.7317 0.0 0.0 0.0 34.2647 -11.6213 -5.21362 -27.3913 0.135112 4.16147 -11.2958 26.0063 1.76678 -3.74922 0.0 0.0 -0.0 0.0 -0.0 19.2649 30.1629 -4.25922 -38.6578 0.383596 -5.80948 13.6466 -0.45401 1.92912 -0.974636 0.0 0.0 0.0 0.0 0.0 
2913.04 720.908 -556.49 -168.065 -46.0214 -168.556 4.17444 -0.00339403 -0.600855 4.17464 0.0348461 -0.599854 4.17415 0.117569 -0.589251 4.17366 0.023034 -0.600423 -16.1412 13.8006 3.60195 -16.7321 24.4157 8.40262 -0.0 0.0 -0.0 10.0606 12.9066 18.6212 -41.1207 -32.7171 44.2831 1.28632 -32.504 0.374992 -44.4449 -3.4358 4.36131 1.28538 -0.0475074 8.5989 -0.0 0.0 -0.0 10.7894 2.82581 -21.4421 -19.0235 22.2526 -61.8013 0.197418 5.58562 -0.00963056 33.8566 0.0688603 4.26213 1.26556 -4.43736 -10.2457 0.0 0.0 0.0 34.1349 -12.7506 -4.81895 -28.1156 0.111616 4.27015 -11.4418 25.5723 1.78576 -3.5974 0.0 0.0 -0.0 0.0 -0.0 20.0087 32.9015 -4.12815 -39.0817 0.409382 -5.86931 13.321 -1.02219 1.88328 -1.317 0.0 0.0 0.0 0.0 0.0 
2925.58 724.54 -561.346 -167.054 -45.2706 -168.41 4.24641 -0.0452272 -0.732801 4.24671 0.00149316 -0.734193 4.2465 0.10222 -0.727045 4.24576 -0.0138827 -0.734064 -15.6214 14.4992 2.70609 -16.2947 26.2137 7.72904 -0.0 0.0 -0.0 9.8431 11.6656 18.3791 -39.3136 -33.5788 42.9317 1.40626 -34.8598 0.441521 -45.0112 -3.49917 4.39689 1.14109 -0.356118 7.49951 -0.0 0.0 -0.0 10.6507 2.74215 -21.143 -19.1293 21.2779 -60.8554 0.203919 5.76833 -0.0102736 34.2263 0.0834933 4.30707 1.26832 -5.61902 -10.7215 0.0 0.0 0.0 33.8073 -13.4382 -3.77032 -27.5993 0.128504 4.19271 -7.58653 24.6966 1.17277 -2.66457 0.0 0.0 -0.0 0.0 -0.0 22.1765 34.9683 -4.13615 -39.0456 0.407166 -5.86422 12.2135 -0.933128 1.73453 -1.69951 0.0 0.0 0.0 0.0 0.0 
2941.86 723.455 -562.846 -166.64 -44.5439 -168.118 4.63383 -0.156469 -0.835641 4.63421 -0.102979 -0.843903 4.63544 0.0080089 -0.850125 4.63445 -0.126348 -0.840722 -16.2732 14.5376 2.55011 -17.0179 26.4398 7.77368 -0.0 0.0 -0.0 10.0157 14.1128 18.3814 -36.3844 -33.7141 40.6252 1.38674 -34.4853 0.430419 -45.8234 -3.59067 4.44683 0.698242 2.81628 5.81595 -0.0 0.0 -0.0 9.50414 1.68993 -18.6959 -19.9129 21.5782 -60.4351 0.236406 6.67956 -0.0137958 33.1949 0.0433935 4.18147 1.4439 -5.57585 -11.8799 0.0 0.0 0.0 33.5168 -15.4799 -3.14067 -27.5378 0.130472 4.18347 -8.09131 23.1235 1.24239 -3.15563 0.0 0.0 -0.0 0.0 -0.0 23.6263 38.175 -5.33371 -39.3587 0.426473 -5.90831 13.7172 -3.79948 1.92769 -1.88723 0.0 0.0 0.0 0.0 0.0 
2956.75 724.797 -563.121 -165.871 -44.6362 -167.609 4.94146 -0.227594 -1.06037 4.94207 -0.159662 -1.0727 4.94454 -0.0241957 -1.08424 4.94295 -0.195118 -1.06682 -16.6569 14.5646 2.68497 -17.4326 26.4517 8.01032 -0.0 0.0 -0.0 9.85802 12.0585 18.36 -34.9394 -31.8364 40.4594 1.45644 -35.8075 0.470546 -48.141 -3.85554 4.58216 0.35079 1.33416 2.89633 -0.0 0.0 -0.0 9.18992 0.0833476 -17.9959 -20.3472 20.5731 -61.5596 0.203046 5.74382 -0.0101861 30.0349 -0.0652753 3.79258 0.151788 -6.04896 -3.51908 0.0 0.0 0.0 33.197 -18.1715 -1.85394 -27.5543 0.129945 4.18595 -7.22153 22.4587 1.10416 0.451154 -0.0 -0.0 -0.0 0.0 -0.0 29.0966 39.8506 -7.30816 -41.5598 0.568972 -6.21524 15.6028 -5.63106 2.17256 -2.63914 0.0 0.0 0.0 0.0 0.0 
